<svg xmlns="http://www.w3.org/2000/svg" viewBox="0 0 512 512">
  <defs>
    <linearGradient id="background" x1="64" y1="32" x2="448" y2="480" gradientUnits="userSpaceOnUse">
      <stop stop-color="#42a5ff"/>
      <stop offset="1" stop-color="#1769c2"/>
    </linearGradient>
  </defs>
  <rect x="24" y="24" width="464" height="464" rx="104" fill="#101820"/>
  <rect x="42" y="42" width="428" height="428" rx="88" fill="url(#background)"/>
  <path d="M154 128h72v190c0 58-34 94-92 94H96v-66h30c19 0 28-10 28-31V128Z" fill="#fff"/>
  <path d="M278 170a40 40 0 1 1 0 80 40 40 0 0 1 0-80Zm0 92a40 40 0 1 1 0 80 40 40 0 0 1 0-80Z" fill="#fff"/>
  <path d="m308 226 108-62v66l-77 40 77 40v66l-108-62v-88Z" fill="#fff"/>
</svg>
